<?xml version="1.0" encoding="UTF-8"?>
<svg version="1.1" xmlns="http://www.w3.org/2000/svg" width="942" height="931">
<path d="M0 0 C1.11487793 0.20898926 2.22975586 0.41797852 3.37841797 0.63330078 C50.45802244 9.83149659 94.83145664 30.70376544 132 61 C132.50917969 61.40766602 133.01835938 61.81533203 133.54296875 62.23535156 C141.95275329 68.99951777 149.66481362 76.45892347 157.3125 84.0625 C158.231521 84.97225586 159.15054199 85.88201172 160.09741211 86.81933594 C166.15522953 92.90505444 171.68177037 99.26151942 177 106 C177.48750732 106.60787354 177.97501465 107.21574707 178.47729492 107.84204102 C214.10284391 152.42141708 235.65937349 207.27692479 241 264 C241.11214844 265.14597656 241.22429688 266.29195313 241.33984375 267.47265625 C247.61758765 343.75154441 223.86489183 421.04848207 175 480 C174.56075195 480.54076172 174.12150391 481.08152344 173.66894531 481.63867188 C161.66608409 496.39671558 148.17635529 510.49265368 133 522 C131.71760508 523.00896317 130.43645769 524.01951305 129.15625 525.03125 C87.57182642 557.66303581 38.37599566 578.63027175 -14 586 C-14.7945459 586.11714355 -15.5890918 586.23428711 -16.40771484 586.35498047 C-93.1318738 597.2095861 -172.73593619 574.30472501 -234.23071289 528.12817383 C-239.62933261 524.01368013 -244.7657793 519.65987674 -249.7578125 515.05859375 C-251.69745049 513.27777629 -253.67518423 511.57208176 -255.6875 509.875 C-266.0577028 500.81161138 -275.5210334 490.84000984 -284 480 C-284.93860318 478.85966618 -285.88019595 477.72178876 -286.82421875 476.5859375 C-294.32235263 467.50956835 -300.89122545 458.06038809 -307 448 C-307.4846875 447.20352051 -307.969375 446.40704102 -308.46875 445.58642578 C-326.5787419 415.53869508 -339.6137575 382.55550452 -346 348 C-346.14872559 347.22156738 -346.29745117 346.44313477 -346.45068359 345.64111328 C-360.4855101 270.81489943 -344.24377035 189.91163636 -301.32763672 126.93603516 C-300.67045654 125.97769775 -300.67045654 125.97769775 -300 125 C-299.5786377 124.38044434 -299.15727539 123.76088867 -298.72314453 123.12255859 C-292.67539387 114.27409247 -286.05895139 106.05835583 -279 98 C-277.99646484 96.82824219 -277.99646484 96.82824219 -276.97265625 95.6328125 C-265.77617996 82.81783568 -253.60857246 70.24961593 -240 60 C-238.81573773 59.07637737 -237.63219741 58.15182862 -236.44921875 57.2265625 C-170.00834852 5.77361385 -82.69369167 -15.50729525 0 0 Z " fill="#000000" transform="translate(528,130)"/>
<path d="M0 0 C7.11520654 4.85033701 12.55276765 11.28301234 16.6875 18.83203125 C16.6875 19.49203125 16.6875 20.15203125 16.6875 20.83203125 C17.3475 20.83203125 18.0075 20.83203125 18.6875 20.83203125 C19.85167471 22.23588899 21.01183061 23.64325865 22.15234375 25.06640625 C24.99891431 28.34032456 28.39483805 31.02051532 31.6875 33.83203125 C39.19194719 40.37272238 46.25036794 47.29292311 53.2421875 54.37036133 C56.39837762 57.56227185 59.58057257 60.7276605 62.7734375 63.8828125 C67.95694365 69.01552295 73.10162429 74.12116658 77.82421875 79.6875 C79.82830702 81.99409216 81.90060558 84.22471318 83.98632812 86.45727539 C89.01964849 91.84532945 93.80332393 97.33839436 98.4140625 103.09765625 C100.43959012 105.53385786 102.5457865 107.85516078 104.72119141 110.1574707 C131.8787124 138.92555077 144.82998726 174.85655915 143.79248047 214.17871094 C143.58031637 219.54103511 142.85402585 224.600704 141.6875 229.83203125 C141.52088867 230.61674805 141.35427734 231.40146484 141.18261719 232.20996094 C139.09867803 241.96020475 136.96212015 251.39992765 132.703125 260.45703125 C130.10981632 266.52138384 129.81727351 273.35180101 130.6875 279.83203125 C132.17914978 283.04100477 134.21972717 285.32198394 136.6875 287.83203125 C137.27917969 288.47527344 137.87085938 289.11851562 138.48046875 289.78125 C147.7436056 299.50276888 159.84428769 311.1819772 173.5625 313.26953125 C178.08884608 312.6358428 181.04962057 310.50359896 184.6875 307.83203125 C185.265 307.40921875 185.8425 306.98640625 186.4375 306.55078125 C192.0423103 302.08769157 196.2816689 296.43450784 200.6875 290.83203125 C201.36683594 289.99542969 202.04617188 289.15882813 202.74609375 288.296875 C203.36613281 287.52472656 203.98617187 286.75257813 204.625 285.95703125 C205.17027344 285.27898437 205.71554687 284.6009375 206.27734375 283.90234375 C209.61510354 279.00203159 209.95602152 275.42758618 209.22607422 269.64160156 C208.24007677 264.49796664 206.50041383 259.63297458 204.75 254.70703125 C199.16531282 238.70225691 196.28800022 223.84268521 196.3125 206.76953125 C196.31337616 206.09394165 196.31425232 205.41835205 196.31515503 204.72229004 C196.45080308 172.84077287 208.34004081 143.94528953 227.6875 118.83203125 C228.34234375 117.96578125 228.9971875 117.09953125 229.671875 116.20703125 C234.39680751 110.11538272 239.60048393 104.50208896 244.86328125 98.87890625 C247.12268107 96.45913305 249.29761624 93.98375898 251.4375 91.45703125 C254.14959831 88.3242017 257.08494397 85.69390224 260.2421875 83.01953125 C265.4223047 78.38556059 270.23594884 73.35384118 275.12207031 68.41381836 C278.53706852 64.9631363 281.98041031 61.54134547 285.4296875 58.125 C286.80734395 56.75656305 288.18494694 55.38807228 289.5625 54.01953125 C290.24441406 53.34599609 290.92632813 52.67246094 291.62890625 51.97851562 C295.65202201 47.97455756 299.46842494 43.86187113 303.17333984 39.56225586 C304.88024768 37.61177926 306.68273947 35.80321513 308.5625 34.01953125 C312.52535525 30.1178784 315.97944374 25.89733663 319.4609375 21.56640625 C322.14188519 18.27401435 324.94021012 15.10818746 327.7890625 11.9609375 C329.0416609 10.55627469 330.26672424 9.1265004 331.4609375 7.671875 C336.02626883 2.1459649 340.81558775 -1.87733133 347.6875 -4.16796875 C358.64064434 -4.98676998 367.47923784 -3.91635345 377 1.83203125 C390.24278511 14.84517269 388.88199432 38.44632537 389.03878975 55.52802277 C389.07200676 61.2177203 389.05289061 66.90666647 389.01411438 72.59628296 C388.99981209 74.86179625 388.99067967 77.12727731 388.98303223 79.39282227 C388.91076757 99.79982115 388.6534682 120.20596074 388.04769897 140.60449219 C387.97466106 143.07503849 387.90707052 145.54575229 387.84512329 148.01660156 C387.7555566 151.42485149 387.6400585 154.83114834 387.515625 158.23828125 C387.49249741 159.23186646 387.46936981 160.22545166 387.44554138 161.24914551 C387.201295 166.89155601 386.53516312 170.4139173 382.6875 174.83203125 C380.71142578 176.53198242 380.71142578 176.53198242 378.6328125 177.875 C377.47410645 178.64070313 377.47410645 178.64070313 376.29199219 179.421875 C375.47375977 179.94910156 374.65552734 180.47632813 373.8125 181.01953125 C365.43221123 186.59154868 357.43784775 192.41572324 349.6875 198.83203125 C349.10613281 199.31043457 348.52476562 199.78883789 347.92578125 200.28173828 C334.79671779 211.1573589 322.4209306 223.08026414 311.27832031 235.98950195 C304.12941588 244.26954827 296.50777473 252.1252475 288.8125 259.89453125 C288.09916504 260.6208374 287.38583008 261.34714355 286.65087891 262.09545898 C285.62099854 263.1271521 285.62099854 263.1271521 284.5703125 264.1796875 C283.96590332 264.78820557 283.36149414 265.39672363 282.73876953 266.02368164 C280.6875 267.83203125 280.6875 267.83203125 277.79418945 269.7253418 C274.50738148 271.95417213 271.8977444 274.37894014 269.09765625 277.19140625 C268.59004257 277.69947815 268.08242889 278.20755005 267.55943298 278.73101807 C266.4923986 279.80105518 265.42777691 280.87350319 264.36547852 281.94824219 C262.76298784 283.5688962 261.15273388 285.18149659 259.54101562 286.79296875 C254.6638881 291.6873713 249.90946993 296.63494918 245.41577148 301.88769531 C241.09815749 306.74508729 236.34459912 311.20900952 231.71484375 315.765625 C227.36749338 320.07110682 223.2006963 324.44259458 219.21582031 329.08544922 C217.19519609 331.39464182 215.02385451 333.51880158 212.8125 335.64453125 C209.29855775 339.11048339 206.09284348 342.67323527 203 346.51953125 C199.45547463 350.92540108 195.9323882 355.08759303 191.6875 358.83203125 C190.59888672 359.81236328 190.59888672 359.81236328 189.48828125 360.8125 C183.62418212 365.54343987 179.21514283 366.64165469 171.71484375 366.1953125 C167.85879587 365.73258675 164.36848126 365.059025 160.6875 363.83203125 C159.71683594 363.52910156 158.74617187 363.22617187 157.74609375 362.9140625 C149.6715875 360.32823903 143.33352076 357.85893807 137.25219727 351.75317383 C136.74562592 351.24864685 136.23905457 350.74411987 135.71713257 350.2243042 C134.05538149 348.56554446 132.40458902 346.89633107 130.75390625 345.2265625 C129.59156378 344.0611576 128.42862539 342.89634677 127.26512146 341.73210144 C124.83058954 339.29297567 122.4010359 336.84903768 119.9753418 334.40112305 C116.88455275 331.28214743 113.78524457 328.17182188 110.68257236 325.06467152 C107.70319656 322.08010584 104.72850141 319.09089145 101.75390625 316.1015625 C101.19478609 315.54056162 100.63566593 314.97956074 100.05960274 314.40155983 C98.45455126 312.78953413 96.85290278 311.17420127 95.25219727 309.55786133 C94.34429947 308.64313553 93.43640167 307.72840973 92.50099182 306.78596497 C90.33953984 304.56094446 88.29576717 302.25382173 86.26583862 299.90838623 C82.94245693 296.08052514 79.45902024 292.46181543 75.86938477 288.88452148 C75.22772369 288.24110809 74.58606262 287.5976947 73.92495728 286.93478394 C71.82876065 284.83422967 69.72897898 282.73730349 67.62890625 280.640625 C66.15577355 279.16681751 64.68278923 277.69286171 63.20994568 276.21876526 C60.13271509 273.14006594 57.05369756 270.06316814 53.97338867 266.98754883 C50.04181328 263.06167019 46.11474506 259.13131855 42.18901157 255.19959927 C39.15122259 252.15818238 36.1110381 249.11916899 33.07014275 246.08085823 C31.62185382 244.6332324 30.17429632 243.1848744 28.72751045 241.73574638 C26.69909901 239.70477164 24.66746854 237.67706991 22.63500977 235.65014648 C21.75489983 234.7670002 21.75489983 234.7670002 20.85700989 233.86601257 C17.22622864 230.25336387 13.4590493 226.85608406 9.5867281 223.50457287 C6.90099907 221.13940484 4.3624806 218.64717289 1.83813477 216.11206055 C1.31188004 215.58755814 0.78562531 215.06305573 0.24342346 214.5226593 C-1.46390845 212.81966468 -3.16763247 211.11311561 -4.87109375 209.40625 C-6.0678118 208.21020672 -7.26467816 207.01431182 -8.46168518 205.81855774 C-10.95354063 203.3281677 -13.44360043 200.83600006 -15.93237305 198.3425293 C-19.12568977 195.14347859 -22.32352568 191.94898871 -25.52268887 188.75578594 C-27.98738564 186.29469442 -30.44970609 183.83123655 -32.91130257 181.36704445 C-34.09035882 180.18732075 -35.27015937 179.00834044 -36.4507122 177.83011436 C-38.09253439 176.1908221 -39.73113361 174.54837572 -41.36889648 172.9050293 C-42.30185043 171.97127975 -43.23480438 171.03753021 -44.19602966 170.07548523 C-53.00057528 160.74268591 -48.49797641 133.02913486 -48.515625 120.9765625 C-48.51992966 118.97767196 -48.52423489 116.97878141 -48.5285995 114.979891 C-48.54032512 109.42694778 -48.54791879 103.87401433 -48.5513947 98.32106 C-48.5558834 91.19609364 -48.57350312 84.07131833 -48.6023953 76.94641 C-48.62412461 71.39090119 -48.63410461 65.83544579 -48.63543582 60.27989501 C-48.636474 56.98202611 -48.64366668 53.68437779 -48.66025543 50.38654518 C-48.82613416 14.90918797 -48.82613416 14.90918797 -38.8125 4.14453125 C-37.9875 3.38140625 -37.1625 2.61828125 -36.3125 1.83203125 C-35.735 1.29578125 -35.1575 0.75953125 -34.5625 0.20703125 C-23.74633607 -6.40284671 -10.89870569 -6.18849379 0 0 Z " fill="#FDFDFD" transform="translate(303.3125,299.16796875)"/>
<path d="M0 0 C0.66 0.33 1.32 0.66 2 1 C1.06728271 1.92748047 0.13456543 2.85496094 -0.82641602 3.81054688 C-4.31599393 7.28190149 -7.80216036 10.75666551 -11.28735352 14.23242188 C-12.79066955 15.73073707 -14.29488536 17.22815007 -15.80004883 18.72460938 C-17.9745947 20.88690225 -20.1457871 23.05251613 -22.31640625 25.21875 C-22.98023819 25.87742065 -23.64407013 26.53609131 -24.32801819 27.21472168 C-27.47981571 30.36614731 -30.52448498 33.55767835 -33.43334961 36.93554688 C-37.32805175 41.44496792 -41.51578613 45.62373465 -45.75 49.8125 C-46.56694336 50.62565674 -47.38388672 51.43881348 -48.22558594 52.27661133 C-51.68695042 55.7217734 -55.15428591 59.1609029 -58.62109375 62.60058594 C-61.16615188 65.12746508 -63.70813131 67.65741315 -66.25 70.1875 C-67.02311523 70.95231689 -67.79623047 71.71713379 -68.59277344 72.50512695 C-72.01484855 75.91187822 -75.34820011 79.3404702 -78.5 83 C-82.36844205 87.49161733 -86.53760933 91.64532361 -90.75 95.8125 C-91.56694336 96.62565674 -92.38388672 97.43881348 -93.22558594 98.27661133 C-96.68695042 101.7217734 -100.15428591 105.1609029 -103.62109375 108.60058594 C-106.16615188 111.12746508 -108.70813131 113.65741315 -111.25 116.1875 C-112.02311523 116.95231689 -112.79623047 117.71713379 -113.59277344 118.50512695 C-117.01484855 121.91187822 -120.34820011 125.3404702 -123.5 129 C-127.36844205 133.49161733 -131.53760933 137.64532361 -135.75 141.8125 C-136.56694336 142.62565674 -137.38388672 143.43881348 -138.22558594 144.27661133 C-141.68695042 147.7217734 -145.15428591 151.1609029 -148.62109375 154.60058594 C-151.16615188 157.12746508 -153.70813131 159.65741315 -156.25 162.1875 C-157.02311523 162.95231689 -157.79623047 163.71713379 -158.59277344 164.50512695 C-162.69807885 168.59204906 -166.63246423 172.75556988 -170.38574219 177.16918945 C-170.91844727 177.77335693 -171.45115234 178.37752441 -172 179 C-172.58998779 179.72078232 -173.17997559 180.44156464 -173.7878418 181.18418884 C-176.77050409 183.63245473 -178.7653305 183.59609635 -182.59765625 183.75219727 C-183.25196121 183.78341675 -183.90626617 183.81463623 -184.58039856 183.84680176 C-186.7408933 183.94243833 -188.9007143 184.00727156 -191.0625 184.06640625 C-191.80510071 184.08999647 -192.54770142 184.11358669 -193.31280518 184.13789177 C-197.24909063 184.26189198 -201.18516115 184.36217099 -205.12255859 184.44311523 C-208.36260518 184.51334828 -211.59710439 184.62420378 -214.83447266 184.77319336 C-243.11774383 186.05735782 -243.11774383 186.05735782 -249.58862305 181.33666992 C-252.75840456 178.27923734 -254.81703145 174.80240351 -257 171 C-259.07607492 168.66728931 -259.07607492 168.66728931 -261.20703125 166.73046875 C-261.81353516 166.13169922 -262.42003906 165.53292969 -263.04492188 164.91601562 C-263.62822266 164.34560547 -264.21152344 163.77519531 -264.8125 163.1875 C-268.49702936 159.5817841 -272.08296342 155.95822906 -275.44921875 152.05078125 C-279.09853582 147.82141322 -283.01378726 143.90984851 -287 140 C-290.95867373 136.11716293 -294.85058338 132.23659338 -298.46875 128.03125 C-302.26142048 123.62796818 -306.35573206 119.57013076 -310.5 115.5 C-315.27880802 110.8066805 -319.87155094 106.06008022 -324.24023438 100.98242188 C-327.33394006 97.49728173 -330.67436478 94.26192574 -334 91 C-338.60802955 86.48024688 -343.01017797 81.89067773 -347.22265625 77 C-350.32386585 73.51028722 -353.66834132 70.2678338 -357 67 C-360.95867373 63.11716293 -364.85058338 59.23659338 -368.46875 55.03125 C-372.26142048 50.62796818 -376.35573206 46.57013076 -380.5 42.5 C-384.63597194 38.43801683 -388.72277217 34.39010997 -392.50390625 29.9921875 C-396.92269794 24.85358692 -401.79535307 20.19032679 -406.65429688 15.47265625 C-407.34458984 14.79332031 -408.03488281 14.11398438 -408.74609375 13.4140625 C-409.37185303 12.8051416 -409.9976123 12.1962207 -410.64233398 11.56884766 C-412 10 -412 10 -412 8 C-412.66 8 -413.32 8 -414 8 C-414 7.34 -414 6.68 -414 6 C-405.53756636 8.01895625 -397.24084642 10.16613255 -389.01171875 13.01171875 C-385.78223324 14.07145913 -382.53883656 14.95470134 -379.25 15.8125 C-378.03207764 16.15744003 -376.81415527 16.50238007 -375.55932617 16.85777283 C-372.40568631 17.71021732 -369.33438611 18.24023165 -366.09570312 18.65187073 C-344.26771928 22.2454385 -331.17852903 38.61073204 -316.49840164 53.77790141 C-312.69791573 57.68579052 -308.84812309 61.544526 -305.00366211 65.40907288 C-297.75546446 72.70978201 -290.55164182 80.05265405 -283.36336231 87.412314 C-275.16742676 95.79929686 -266.92225799 104.1371609 -258.67292404 112.47157466 C-241.72723195 129.59421805 -224.84322367 146.77659192 -208 164 C-202.27003734 159.29636041 -197.1062422 154.16314361 -191.94363785 148.84751129 C-189.85152362 146.69350385 -187.7528422 144.54593554 -185.65470767 142.39779437 C-184.52494826 141.24096756 -183.39552479 140.08381259 -182.26641774 138.92634904 C-174.95900191 131.4372979 -167.60873342 123.99040926 -160.26094937 116.54099786 C-153.13657223 109.31753675 -146.02548564 102.08220192 -138.95654297 94.80444336 C-133.31941625 89.00095915 -127.65265319 83.22820969 -121.95191896 77.48717338 C-118.95179769 74.46376736 -115.96655383 71.42886358 -113.0170784 68.35596275 C-96.91005869 51.60011634 -80.88063575 40.35897388 -59.71587753 30.71943855 C-53.98320659 28.09648268 -48.40816248 25.16698276 -42.8125 22.265625 C-40.81979528 21.24846093 -38.82641317 20.2326216 -36.83203125 19.21875 C-35.87248535 18.73019531 -34.91293945 18.24164063 -33.92431641 17.73828125 C-31.93195852 16.72430449 -29.93943893 15.71064542 -27.94677734 14.69726562 C-24.96378184 13.17982671 -21.98182528 11.66036187 -19 10.140625 C-18.12190674 9.69479065 -17.24381348 9.2489563 -16.33911133 8.78961182 C-11.40424188 6.27270442 -6.57483452 3.64738974 -1.8125 0.81536865 C-1.214375 0.546297 -0.61625 0.27722534 0 0 Z " fill="#FCFCFC" transform="translate(679,238)"/>
<path d="M0 0 C2.625 0.25 2.625 0.25 4.25976562 1.28271484 C6.35443056 4.30110004 6.09166316 7.42786739 6.09375 10.9765625 C6.10344818 11.74840881 6.11314636 12.52025513 6.12313843 13.31549072 C6.14471441 15.83575441 6.1382676 18.35469052 6.125 20.875 C6.12356995 21.7322467 6.12213989 22.58949341 6.1206665 23.47271729 C6.05965625 38.21134635 4.75432091 52.02495559 0.625 66.25 C0.40038086 67.02408203 0.17576172 67.79816406 -0.05566406 68.59570312 C-3.98174702 81.47691273 -10.41745219 93.40895293 -19.69140625 103.21875 C-20.20330002 103.76661667 -20.71519379 104.31448334 -21.24259949 104.87895203 C-28.05118854 112.10938659 -35.13049755 119.07619382 -42.1875 126.0625 C-44.90536355 128.75348886 -47.61967985 131.44798783 -50.33203125 134.14453125 C-50.93634476 134.74054642 -51.54065826 135.33656158 -52.1632843 135.95063782 C-57.34077042 141.09870717 -62.22810148 146.46483435 -66.6875 152.25 C-67.5228125 153.24 -67.5228125 153.24 -68.375 154.25 C-69.035 154.25 -69.695 154.25 -70.375 154.25 C-70.6225 154.806875 -70.87 155.36375 -71.125 155.9375 C-72.60424818 158.67410913 -74.30967439 160.92650869 -76.375 163.25 C-77.035 163.25 -77.695 163.25 -78.375 163.25 C-78.78818481 164.13316895 -78.78818481 164.13316895 -79.2097168 165.03417969 C-81.0686422 168.56898106 -83.62700029 171.45340784 -86.1875 174.5 C-86.70892578 175.1496875 -87.23035156 175.799375 -87.76757812 176.46875 C-91.58458694 181.00531978 -91.58458694 181.00531978 -94.94921875 182.046875 C-98.62682036 180.83877399 -100.55127159 178.53584799 -102.375 175.25 C-103.06710152 172.3677038 -103.47676475 169.97288158 -103.6875 167.0625 C-103.75743164 166.28366455 -103.82736328 165.5048291 -103.89941406 164.70239258 C-106.29930916 135.10861221 -101.47041723 107.2501844 -81.84521484 83.94482422 C-77.43464326 78.86043565 -72.79732828 73.98891326 -68.14990234 69.12207031 C-66.47415916 67.35458768 -64.82066778 65.56961895 -63.17578125 63.7734375 C-54.86068521 54.71174176 -46.20771902 46.00788879 -37.45727539 37.36914062 C-32.76547343 32.72564544 -28.21142093 28.03534268 -23.91967773 23.01733398 C-21.53735322 20.29161134 -18.96585369 17.77553444 -16.375 15.25 C-11.81984901 10.75759018 -7.51065049 6.1351535 -3.375 1.25 C-2.375 0.25 -2.375 0.25 0 0 Z " fill="#010101" transform="translate(647.375,371.75)"/>
<path d="M0 0 C4.98443223 0.79182426 7.01923169 4.55371004 9.86328125 8.39453125 C13.24117112 12.94291403 17.09870177 17.02739266 20.9375 21.1875 C21.47262207 21.77305664 22.00774414 22.35861328 22.55908203 22.96191406 C30.54487987 31.69104124 38.77767594 39.9954729 47.48828125 48 C54.07197588 54.05330625 60.37850999 60.34714545 66.1796875 67.16015625 C67.40310919 68.57116927 68.66147387 69.95232064 69.9453125 71.30859375 C86.39617733 88.79132286 97.20888308 107.70313054 101.9375 131.1875 C102.14246094 132.19683594 102.34742188 133.20617187 102.55859375 134.24609375 C103.0518244 138.07498734 103.08683217 141.83105737 103.0625 145.6875 C103.05839111 146.47632568 103.05428223 147.26515137 103.05004883 148.07788086 C102.82770305 171.75890191 102.82770305 171.75890191 98.9375 178.1875 C96.78509899 179.69191503 95.62860607 180.277356 93.00341797 179.93603516 C90.48977245 179.0252768 89.47037713 177.93668435 87.73828125 175.9140625 C87.16916016 175.2540625 86.60003906 174.5940625 86.01367188 173.9140625 C85.43166016 173.22054687 84.84964844 172.52703125 84.25 171.8125 C83.65638672 171.12671875 83.06277344 170.4409375 82.45117188 169.734375 C78.07758402 164.60775207 78.07758402 164.60775207 76.9375 161.1875 C76.2775 161.1875 75.6175 161.1875 74.9375 161.1875 C73.45483398 159.70117188 73.45483398 159.70117188 71.74609375 157.65625 C68.26389662 153.56482539 64.67855038 149.60278156 61 145.6875 C60.33685791 144.98117432 59.67371582 144.27484863 58.99047852 143.54711914 C51.58463456 135.72136908 43.94052806 128.1333371 36.27563477 120.5625 C31.4670614 115.80138143 26.75525198 111.02196459 22.39624023 105.84057617 C20.87919195 104.12142405 19.26293756 102.59859547 17.5625 101.0625 C0.92223935 84.45954936 -6.1964801 58.40656224 -6.23046875 35.5234375 C-6.23379715 34.72773346 -6.23712555 33.93202942 -6.24055481 33.11221313 C-6.24558195 31.44330416 -6.24796445 29.77438529 -6.24780273 28.10546875 C-6.25000014 25.5623324 -6.26823012 23.019623 -6.28710938 20.4765625 C-6.29004209 18.84635563 -6.2920277 17.21614673 -6.29296875 15.5859375 C-6.30374702 14.45603897 -6.30374702 14.45603897 -6.31474304 13.30331421 C-6.25910867 0.38321074 -6.25910867 0.38321074 0 0 Z " fill="#010101" transform="translate(305.0625,372.8125)"/>
<path d="M0 0 C2 1 2 1 2 1 Z " fill="#FFFFFF" transform="translate(568,804)"/>
</svg>
